<svg width="257" height="19" viewBox="0 0 257 19" fill="none" xmlns="http://www.w3.org/2000/svg">
<path d="M74.3753 3.68555H70.6934H67.7478V18.4133H70.6934V13.995H74.3753C77.2215 13.995 79.53 11.6864 79.53 8.84027C79.53 5.99413 77.2215 3.68555 74.3753 3.68555ZM74.3753 11.0494H70.6934V6.63111H74.3753C75.594 6.63111 76.5845 7.62155 76.5845 8.84027C76.5845 10.059 75.594 11.0494 74.3753 11.0494Z" fill="#0D0C43"/>
<path d="M184.834 3.68555H181.152H178.206V18.4133H181.152V13.995H184.834C187.68 13.995 189.989 11.6864 189.989 8.84027C189.989 5.99413 187.68 3.68555 184.834 3.68555ZM184.834 11.0494H181.152V6.63111H184.834C186.053 6.63111 187.043 7.62155 187.043 8.84027C187.043 10.059 186.053 11.0494 184.834 11.0494Z" fill="#0D0C43"/>
<path d="M206.926 3.68555H203.244H200.298V18.4133H203.244V13.995H206.926C209.772 13.995 212.08 11.6864 212.08 8.84027C212.08 5.99413 209.772 3.68555 206.926 3.68555ZM206.926 11.0494H203.244V6.63111H206.926C208.144 6.63111 209.135 7.62155 209.135 8.84027C209.135 10.059 208.144 11.0494 206.926 11.0494Z" fill="#0D0C43"/>
<path d="M54.4927 3.68555L51.5472 9.57666L48.6016 3.68555H44.9197L50.0744 12.5222V18.4133H53.02V12.5222L58.1747 3.68555H54.4927Z" fill="#0D0C43"/>
<path d="M10.8323 13.7815C10.0223 14.8087 8.7704 15.4678 7.3639 15.4678C4.92276 15.4678 2.94556 13.4906 2.94556 11.0495C2.94556 8.60833 4.92276 6.63113 7.3639 6.63113C8.7704 6.63113 10.0223 7.2902 10.8323 8.31746L12.92 6.22611C11.5687 4.67233 9.58411 3.68188 7.3639 3.68188C3.29534 3.68188 0 6.97723 0 11.0458C0 15.1143 3.29534 18.4097 7.3639 18.4097C9.58411 18.4097 11.5724 17.4229 12.92 15.8655L10.8323 13.7815Z" fill="#0D0C43"/>
<path d="M10.8323 8.31742C10.0223 7.29015 8.7704 6.63108 7.3639 6.63108C4.92276 6.63108 2.94556 8.60829 2.94556 11.0494C2.94556 13.4906 4.92276 15.4678 7.3639 15.4678C8.7704 15.4678 10.0223 14.8087 10.8323 13.7814L12.92 15.8728C11.5687 17.4266 9.58411 18.417 7.3639 18.417C3.29534 18.417 0 15.1217 0 11.0531C0 6.98455 3.29534 3.68921 7.3639 3.68921C9.58411 3.68921 11.5724 4.67597 12.92 6.23343L10.8323 8.31742Z" fill="#0D0C43"/>
<path d="M36.0831 18.4133L32.5263 13.4317C34.1979 12.5811 35.3467 10.8469 35.3467 8.84027C35.3467 5.99413 33.0381 3.68555 30.192 3.68555H26.51H23.5645V18.4133H26.51V13.995H29.2457L32.4011 18.4133H36.0831ZM26.51 6.63111H30.192C31.4107 6.63111 32.4011 7.62155 32.4011 8.84027C32.4011 10.059 31.4107 11.0494 30.192 11.0494H26.51V6.63111Z" fill="#0D0C43"/>
<path d="M257 18.4133L253.443 13.4317C255.115 12.5811 256.264 10.8469 256.264 8.84027C256.264 5.99413 253.955 3.68555 251.109 3.68555H247.427H244.481V18.4133H247.427V13.995H250.163L253.318 18.4133H257ZM247.427 6.63111H251.109C252.328 6.63111 253.318 7.62155 253.318 8.84027C253.318 10.059 252.328 11.0494 251.109 11.0494H247.427V6.63111Z" fill="#0D0C43"/>
<path d="M101.622 3.68555H97.2035H94.2579H89.8396V6.63111H94.2579V18.4133H97.2035V6.63111H101.622V3.68555Z" fill="#0D0C43"/>
<path d="M117.822 3.68555C113.754 3.68555 110.458 6.98089 110.458 11.0494C110.458 15.118 113.754 18.4133 117.822 18.4133C121.891 18.4133 125.186 15.118 125.186 11.0494C125.186 6.98089 121.891 3.68555 117.822 3.68555ZM117.822 15.4678C115.381 15.4678 113.404 13.4906 113.404 11.0494C113.404 8.60831 115.381 6.63111 117.822 6.63111C120.264 6.63111 122.241 8.60831 122.241 11.0494C122.241 13.4906 120.264 15.4678 117.822 15.4678Z" fill="#0D0C43"/>
<path d="M162.006 0C157.937 0 154.642 3.29535 154.642 7.3639C154.642 11.4325 157.937 14.7278 162.006 14.7278C166.074 14.7278 169.37 11.4325 169.37 7.3639C169.37 3.29535 166.074 0 162.006 0ZM162.006 11.7822C159.565 11.7822 157.587 9.80503 157.587 7.3639C157.587 4.92277 159.565 2.94556 162.006 2.94556C164.447 2.94556 166.424 4.92277 166.424 7.3639C166.424 9.80503 164.447 11.7822 162.006 11.7822Z" fill="#00B2C8"/>
<path d="M225.335 15.4678V12.5222H232.699V9.57666H225.335V6.63111H233.435V3.68555H225.335H222.39V6.63111V9.57666V12.5222V15.4678V18.4133H225.335H233.804V15.4678H225.335Z" fill="#0D0C43"/>
<path d="M142.86 3.68555V9.57666H136.969V3.68555H134.023V9.57666V12.5222V18.4133H136.969V12.5222H142.86V18.4133H145.805V12.5222V9.57666V3.68555H142.86Z" fill="#0D0C43"/>
</svg>
