<svg width="359" height="80" viewBox="0 0 359 80" fill="none" xmlns="http://www.w3.org/2000/svg">
<g opacity="0.15">
<path d="M-125.771 3.8542C-96.2189 -5.12594 56.8297 5.25988 145.616 61.3793C256.598 131.529 260.716 49.4058 328.996 30.0139C397.277 10.622 516.885 19.155 620.975 79.4697C757.535 158.599 780.512 27.8014 792.001 20.9036" stroke="url(#paint0_linear)"/>
<path d="M-174 68.9679C-155.575 9.23043 -62.4759 8.79914 38.9688 110.965C118.116 190.674 211.295 135.172 291.28 95.5391C368.241 57.4052 524.083 136.603 567.652 113.698C636.892 77.2956 615.773 179.552 756.452 151.893" stroke="url(#paint1_linear)"/>
<path d="M-124.89 10.9713C-96.0801 -1.39263 48.8751 2.33139 138.505 61.5205C247.365 132.307 257.421 51.9591 326.481 31.2178C395.34 10.5764 517.364 23.8204 617.419 78.5872C749.492 150.014 769.529 34.7537 789.63 26.4718" stroke="url(#paint2_linear)"/>
<path d="M-124.007 19.0504C-95.9391 3.30262 40.9227 0.364846 131.396 62.6237C238.134 134.048 254.127 55.4743 323.968 33.3836C393.406 11.4928 517.845 29.4478 613.866 78.6665C741.45 142.392 758.547 42.6679 787.261 33.0019" stroke="url(#paint3_linear)"/>
<path d="M-123.127 27.9181C-95.8003 8.78648 32.9681 -0.813098 124.286 64.5155C228.901 136.577 250.832 59.7781 321.453 36.3381C391.469 13.1978 518.324 35.8638 610.31 79.5345C733.406 135.558 747.564 51.3707 784.89 40.3206" stroke="url(#paint4_linear)"/>
<path d="M-122.246 37.4002C-95.6614 14.8848 25.0135 -1.37659 117.175 67.0218C219.668 139.72 247.536 64.6965 318.937 39.907C389.532 15.5172 518.803 42.8943 606.754 81.0169C725.363 129.338 736.58 60.6879 782.52 48.2538" stroke="url(#paint5_linear)"/>
<path d="M-121.363 47.3541C-95.5204 21.4548 17.0611 -1.46836 110.067 69.9997C210.437 143.336 244.242 70.0864 316.424 43.9476C387.598 18.3084 519.284 50.3965 603.201 82.971C717.321 123.59 725.599 70.4769 780.151 56.6586" stroke="url(#paint6_linear)"/>
<path d="M-120.483 57.6655C-95.3815 28.3825 9.10648 -1.2025 102.956 73.3353C201.204 147.309 240.947 75.8341 313.909 48.3459C385.661 21.4572 519.763 58.2563 599.645 85.2828C709.277 118.2 714.616 80.6235 777.78 65.4212" stroke="url(#paint7_linear)"/>
<path d="M-119.6 68.2552C-95.2405 35.5883 1.15407 -0.658498 95.8474 76.949C191.973 151.56 237.653 81.8599 311.396 53.0223C383.727 24.8841 520.244 66.3942 596.091 87.8727C701.236 113.087 703.634 91.0483 775.412 74.4618" stroke="url(#paint8_linear)"/>
<path d="M-118.719 79.0605C-95.1017 43.0098 -6.80055 0.101253 88.7367 80.7785C182.74 156.027 234.358 88.1014 308.881 57.9144C381.79 28.5268 520.723 74.7479 592.536 90.6783C693.192 108.191 692.651 101.689 773.041 83.7182" stroke="url(#paint9_linear)"/>
<path d="M-123.435 74.407C-100.559 34.9725 -14.7532 1.03381 81.6279 84.7808C173.509 160.666 231.064 94.5157 306.367 62.9794C379.855 32.3423 521.204 83.2744 588.982 93.6568C685.15 103.467 681.669 112.502 770.672 93.1475" stroke="url(#paint10_linear)"/>
<path d="M-121.927 73.4997C-99.7929 30.6813 -22.7075 2.1025 74.5176 88.9192C164.277 165.442 227.769 101.066 303.852 68.1804C377.919 36.2939 521.683 91.9371 585.426 96.7714C677.106 98.8799 670.686 123.452 768.301 102.713" stroke="url(#paint11_linear)"/>
<path d="M-135.51 65.797C-114.118 19.5949 -30.6604 3.2854 67.4086 93.1719C155.045 170.332 224.475 107.731 301.339 73.4957C375.984 40.3597 522.164 100.714 581.872 100C669.064 94.4066 659.704 134.515 765.932 112.392" stroke="url(#paint12_linear)"/>
<path d="M-127.208 72.5934C-106.558 23.0074 -38.6137 4.55984 60.2993 97.5161C145.814 175.314 221.18 114.487 298.825 78.9026C374.049 44.5171 522.644 109.582 578.318 103.321C661.022 90.0249 648.722 145.67 763.563 122.163" stroke="url(#paint13_linear)"/>
<path d="M-115.135 52.2038C-95.2265 -0.766037 -46.5693 5.91278 53.1876 101.939C136.58 180.374 217.884 121.322 296.308 84.3879C372.111 48.7529 523.122 118.529 574.761 106.719C652.977 85.7216 637.737 156.904 761.191 132.013" stroke="url(#paint14_linear)"/>
<path d="M-130.229 59.4526C-111.062 3.09892 -54.523 7.3279 46.0778 106.424C127.348 185.496 214.589 128.219 293.794 89.9354C370.176 53.051 523.602 127.538 571.206 110.18C644.934 81.4805 626.755 168.2 758.821 141.925" stroke="url(#paint15_linear)"/>
</g>
<defs>
<linearGradient id="paint0_linear" x1="-125.771" y1="78.649" x2="93.0274" y2="-152.332" gradientUnits="userSpaceOnUse">
<stop stop-color="#F0FEFF"/>
<stop offset="0.583333" stop-color="#AC00C8"/>
<stop offset="1" stop-color="#79BABE"/>
</linearGradient>
<linearGradient id="paint1_linear" x1="-112.548" y1="134.489" x2="83.9334" y2="-83.3749" gradientUnits="userSpaceOnUse">
<stop stop-color="#F0FEFF"/>
<stop offset="0.583333" stop-color="#AC00C8"/>
<stop offset="1" stop-color="#79BABE"/>
</linearGradient>
<linearGradient id="paint2_linear" x1="-124.89" y1="77.4789" x2="77.4591" y2="-151.296" gradientUnits="userSpaceOnUse">
<stop stop-color="#F0FEFF"/>
<stop offset="0.583333" stop-color="#AC00C8"/>
<stop offset="1" stop-color="#79BABE"/>
</linearGradient>
<linearGradient id="paint3_linear" x1="-124.007" y1="77.0383" x2="63.423" y2="-148.723" gradientUnits="userSpaceOnUse">
<stop stop-color="#F0FEFF"/>
<stop offset="0.583333" stop-color="#AC00C8"/>
<stop offset="1" stop-color="#79BABE"/>
</linearGradient>
<linearGradient id="paint4_linear" x1="-123.127" y1="77.2012" x2="50.843" y2="-144.98" gradientUnits="userSpaceOnUse">
<stop stop-color="#F0FEFF"/>
<stop offset="0.583333" stop-color="#AC00C8"/>
<stop offset="1" stop-color="#79BABE"/>
</linearGradient>
<linearGradient id="paint5_linear" x1="-122.246" y1="77.8455" x2="39.5358" y2="-140.358" gradientUnits="userSpaceOnUse">
<stop stop-color="#F0FEFF"/>
<stop offset="0.583333" stop-color="#AC00C8"/>
<stop offset="1" stop-color="#79BABE"/>
</linearGradient>
<linearGradient id="paint6_linear" x1="-121.363" y1="81.6695" x2="39.1588" y2="-135.543" gradientUnits="userSpaceOnUse">
<stop stop-color="#F0FEFF"/>
<stop offset="0.583333" stop-color="#AC00C8"/>
<stop offset="1" stop-color="#79BABE"/>
</linearGradient>
<linearGradient id="paint7_linear" x1="-120.483" y1="85.8435" x2="40.0051" y2="-130.752" gradientUnits="userSpaceOnUse">
<stop stop-color="#F0FEFF"/>
<stop offset="0.583333" stop-color="#AC00C8"/>
<stop offset="1" stop-color="#79BABE"/>
</linearGradient>
<linearGradient id="paint8_linear" x1="-119.6" y1="90.2372" x2="41.614" y2="-125.968" gradientUnits="userSpaceOnUse">
<stop stop-color="#F0FEFF"/>
<stop offset="0.583333" stop-color="#AC00C8"/>
<stop offset="1" stop-color="#79BABE"/>
</linearGradient>
<linearGradient id="paint9_linear" x1="-118.719" y1="94.8034" x2="43.8185" y2="-121.175" gradientUnits="userSpaceOnUse">
<stop stop-color="#F0FEFF"/>
<stop offset="0.583333" stop-color="#AC00C8"/>
<stop offset="1" stop-color="#79BABE"/>
</linearGradient>
<linearGradient id="paint10_linear" x1="-117.837" y1="99.5107" x2="46.4994" y2="-116.355" gradientUnits="userSpaceOnUse">
<stop stop-color="#F0FEFF"/>
<stop offset="0.583333" stop-color="#AC00C8"/>
<stop offset="1" stop-color="#79BABE"/>
</linearGradient>
<linearGradient id="paint11_linear" x1="-116.956" y1="104.331" x2="49.5591" y2="-111.493" gradientUnits="userSpaceOnUse">
<stop stop-color="#F0FEFF"/>
<stop offset="0.583333" stop-color="#AC00C8"/>
<stop offset="1" stop-color="#79BABE"/>
</linearGradient>
<linearGradient id="paint12_linear" x1="-116.074" y1="109.248" x2="52.9265" y2="-106.572" gradientUnits="userSpaceOnUse">
<stop stop-color="#F0FEFF"/>
<stop offset="0.583333" stop-color="#AC00C8"/>
<stop offset="1" stop-color="#79BABE"/>
</linearGradient>
<linearGradient id="paint13_linear" x1="-115.192" y1="114.246" x2="56.5416" y2="-101.58" gradientUnits="userSpaceOnUse">
<stop stop-color="#F0FEFF"/>
<stop offset="0.583333" stop-color="#AC00C8"/>
<stop offset="1" stop-color="#79BABE"/>
</linearGradient>
<linearGradient id="paint14_linear" x1="-114.312" y1="119.314" x2="60.3555" y2="-96.5053" gradientUnits="userSpaceOnUse">
<stop stop-color="#F8FFF0"/>
<stop offset="0.583333" stop-color="#AC00C8"/>
<stop offset="1" stop-color="#79BABE"/>
</linearGradient>
<linearGradient id="paint15_linear" x1="-113.431" y1="125.1" x2="66.5075" y2="-91.0946" gradientUnits="userSpaceOnUse">
<stop stop-color="#F0FEFF"/>
<stop offset="0.583333" stop-color="#AC00C8"/>
<stop offset="1" stop-color="#79BABE"/>
</linearGradient>
</defs>
</svg>
