<svg width="429" height="65" viewBox="0 0 429 65" fill="none" xmlns="http://www.w3.org/2000/svg">
<g opacity="0.15">
<path d="M-107.771 3.8542C-78.2189 -5.12594 74.8297 5.25988 163.616 61.3793C274.598 131.529 278.716 49.4058 346.996 30.0139C415.277 10.622 534.885 19.155 638.975 79.4697C775.535 158.599 798.512 27.8014 810.001 20.9036" stroke="url(#paint0_linear)"/>
<path d="M-156 68.968C-137.575 9.23055 -44.4759 8.79926 56.9688 110.965C136.116 190.674 229.295 135.172 309.28 95.5392C386.241 57.4053 542.083 136.604 585.652 113.698C654.892 77.2957 633.773 179.552 774.452 151.893" stroke="url(#paint1_linear)"/>
<path d="M-106.89 10.9713C-78.0801 -1.39263 66.8751 2.33139 156.505 61.5205C265.365 132.307 275.421 51.9591 344.481 31.2178C413.34 10.5764 535.364 23.8204 635.419 78.5872C767.492 150.014 787.529 34.7537 807.63 26.4718" stroke="url(#paint2_linear)"/>
<path d="M-106.007 19.0504C-77.9391 3.30262 58.9227 0.364846 149.396 62.6237C256.134 134.048 272.127 55.4743 341.968 33.3836C411.406 11.4928 535.845 29.4478 631.866 78.6665C759.45 142.392 776.547 42.6679 805.261 33.0019" stroke="url(#paint3_linear)"/>
<path d="M-105.127 27.9181C-77.8003 8.78648 50.9681 -0.813098 142.286 64.5155C246.901 136.577 268.832 59.7781 339.453 36.3381C409.469 13.1978 536.324 35.8638 628.31 79.5345C751.406 135.558 765.564 51.3707 802.89 40.3206" stroke="url(#paint4_linear)"/>
<path d="M-104.246 37.4002C-77.6614 14.8848 43.0135 -1.37659 135.175 67.0218C237.668 139.72 265.536 64.6965 336.937 39.907C407.532 15.5172 536.803 42.8943 624.754 81.0169C743.363 129.338 754.58 60.6879 800.52 48.2538" stroke="url(#paint5_linear)"/>
<path d="M-103.363 47.3541C-77.5204 21.4548 35.0611 -1.46836 128.067 69.9997C228.437 143.336 262.242 70.0864 334.424 43.9476C405.598 18.3084 537.284 50.3965 621.201 82.971C735.321 123.59 743.599 70.4769 798.151 56.6586" stroke="url(#paint6_linear)"/>
<path d="M-102.483 57.6655C-77.3815 28.3825 27.1065 -1.2025 120.956 73.3353C219.204 147.309 258.947 75.8341 331.909 48.3459C403.661 21.4572 537.763 58.2563 617.645 85.2828C727.277 118.2 732.616 80.6235 795.78 65.4212" stroke="url(#paint7_linear)"/>
<path d="M-101.6 68.2552C-77.2405 35.5883 19.1541 -0.658498 113.847 76.949C209.973 151.56 255.653 81.8599 329.396 53.0223C401.727 24.8841 538.244 66.3942 614.091 87.8727C719.236 113.087 721.634 91.0483 793.412 74.4618" stroke="url(#paint8_linear)"/>
<path d="M-100.719 79.0605C-77.1017 43.0098 11.1995 0.101253 106.737 80.7785C200.74 156.027 252.358 88.1014 326.881 57.9144C399.79 28.5268 538.723 74.7479 610.536 90.6783C711.192 108.191 710.651 101.689 791.041 83.7182" stroke="url(#paint9_linear)"/>
<path d="M-105.435 74.407C-82.5592 34.9725 3.24675 1.03381 99.6279 84.7808C191.509 160.666 249.064 94.5157 324.367 62.9794C397.855 32.3423 539.204 83.2744 606.982 93.6568C703.15 103.467 699.669 112.502 788.672 93.1475" stroke="url(#paint10_linear)"/>
<path d="M-103.927 73.4997C-81.7929 30.6813 -4.70749 2.1025 92.5176 88.9192C182.277 165.442 245.769 101.066 321.852 68.1804C395.919 36.2939 539.683 91.9371 603.426 96.7714C695.106 98.8799 688.686 123.452 786.301 102.713" stroke="url(#paint11_linear)"/>
<path d="M-117.51 65.797C-96.1182 19.5949 -12.6604 3.2854 85.4086 93.1719C173.045 170.332 242.475 107.731 319.339 73.4957C393.984 40.3597 540.164 100.714 599.872 100C687.064 94.4066 677.704 134.515 783.932 112.392" stroke="url(#paint12_linear)"/>
<path d="M-109.208 72.5934C-88.5579 23.0074 -20.6137 4.55984 78.2993 97.5161C163.814 175.314 239.18 114.487 316.825 78.9026C392.049 44.5171 540.644 109.582 596.318 103.321C679.022 90.0249 666.722 145.67 781.563 122.163" stroke="url(#paint13_linear)"/>
<path d="M-97.1353 52.2038C-77.2265 -0.766037 -28.5693 5.91278 71.1876 101.939C154.58 180.374 235.884 121.322 314.308 84.3879C390.111 48.7529 541.122 118.529 592.761 106.719C670.977 85.7216 655.737 156.904 779.191 132.013" stroke="url(#paint14_linear)"/>
<path d="M-112.229 59.4526C-93.062 3.09892 -36.523 7.3279 64.0778 106.424C145.348 185.496 232.589 128.219 311.794 89.9354C388.176 53.051 541.602 127.538 589.206 110.18C662.934 81.4805 644.755 168.2 776.821 141.925" stroke="url(#paint15_linear)"/>
</g>
<defs>
<linearGradient id="paint0_linear" x1="-107.771" y1="78.649" x2="111.027" y2="-152.332" gradientUnits="userSpaceOnUse">
<stop stop-color="#F0FEFF"/>
<stop offset="0.583333" stop-color="#AC00C8"/>
<stop offset="1" stop-color="#79BABE"/>
</linearGradient>
<linearGradient id="paint1_linear" x1="-94.5483" y1="134.489" x2="101.933" y2="-83.3747" gradientUnits="userSpaceOnUse">
<stop stop-color="#F0FEFF"/>
<stop offset="0.583333" stop-color="#AC00C8"/>
<stop offset="1" stop-color="#79BABE"/>
</linearGradient>
<linearGradient id="paint2_linear" x1="-106.89" y1="77.4789" x2="95.4591" y2="-151.296" gradientUnits="userSpaceOnUse">
<stop stop-color="#F0FEFF"/>
<stop offset="0.583333" stop-color="#AC00C8"/>
<stop offset="1" stop-color="#79BABE"/>
</linearGradient>
<linearGradient id="paint3_linear" x1="-106.007" y1="77.0383" x2="81.423" y2="-148.723" gradientUnits="userSpaceOnUse">
<stop stop-color="#F0FEFF"/>
<stop offset="0.583333" stop-color="#AC00C8"/>
<stop offset="1" stop-color="#79BABE"/>
</linearGradient>
<linearGradient id="paint4_linear" x1="-105.127" y1="77.2012" x2="68.843" y2="-144.98" gradientUnits="userSpaceOnUse">
<stop stop-color="#F0FEFF"/>
<stop offset="0.583333" stop-color="#AC00C8"/>
<stop offset="1" stop-color="#79BABE"/>
</linearGradient>
<linearGradient id="paint5_linear" x1="-104.246" y1="77.8455" x2="57.5358" y2="-140.358" gradientUnits="userSpaceOnUse">
<stop stop-color="#F0FEFF"/>
<stop offset="0.583333" stop-color="#AC00C8"/>
<stop offset="1" stop-color="#79BABE"/>
</linearGradient>
<linearGradient id="paint6_linear" x1="-103.363" y1="81.6695" x2="57.1588" y2="-135.543" gradientUnits="userSpaceOnUse">
<stop stop-color="#F0FEFF"/>
<stop offset="0.583333" stop-color="#AC00C8"/>
<stop offset="1" stop-color="#79BABE"/>
</linearGradient>
<linearGradient id="paint7_linear" x1="-102.483" y1="85.8435" x2="58.0051" y2="-130.752" gradientUnits="userSpaceOnUse">
<stop stop-color="#F0FEFF"/>
<stop offset="0.583333" stop-color="#AC00C8"/>
<stop offset="1" stop-color="#79BABE"/>
</linearGradient>
<linearGradient id="paint8_linear" x1="-101.6" y1="90.2372" x2="59.614" y2="-125.968" gradientUnits="userSpaceOnUse">
<stop stop-color="#F0FEFF"/>
<stop offset="0.583333" stop-color="#AC00C8"/>
<stop offset="1" stop-color="#79BABE"/>
</linearGradient>
<linearGradient id="paint9_linear" x1="-100.719" y1="94.8034" x2="61.8185" y2="-121.175" gradientUnits="userSpaceOnUse">
<stop stop-color="#F0FEFF"/>
<stop offset="0.583333" stop-color="#AC00C8"/>
<stop offset="1" stop-color="#79BABE"/>
</linearGradient>
<linearGradient id="paint10_linear" x1="-99.8368" y1="99.5107" x2="64.4994" y2="-116.355" gradientUnits="userSpaceOnUse">
<stop stop-color="#F0FEFF"/>
<stop offset="0.583333" stop-color="#AC00C8"/>
<stop offset="1" stop-color="#79BABE"/>
</linearGradient>
<linearGradient id="paint11_linear" x1="-98.9559" y1="104.331" x2="67.5591" y2="-111.493" gradientUnits="userSpaceOnUse">
<stop stop-color="#F0FEFF"/>
<stop offset="0.583333" stop-color="#AC00C8"/>
<stop offset="1" stop-color="#79BABE"/>
</linearGradient>
<linearGradient id="paint12_linear" x1="-98.0736" y1="109.248" x2="70.9265" y2="-106.572" gradientUnits="userSpaceOnUse">
<stop stop-color="#F0FEFF"/>
<stop offset="0.583333" stop-color="#AC00C8"/>
<stop offset="1" stop-color="#79BABE"/>
</linearGradient>
<linearGradient id="paint13_linear" x1="-97.1917" y1="114.246" x2="74.5416" y2="-101.58" gradientUnits="userSpaceOnUse">
<stop stop-color="#F0FEFF"/>
<stop offset="0.583333" stop-color="#AC00C8"/>
<stop offset="1" stop-color="#79BABE"/>
</linearGradient>
<linearGradient id="paint14_linear" x1="-96.312" y1="119.314" x2="78.3555" y2="-96.5053" gradientUnits="userSpaceOnUse">
<stop stop-color="#F8FFF0"/>
<stop offset="0.583333" stop-color="#AC00C8"/>
<stop offset="1" stop-color="#79BABE"/>
</linearGradient>
<linearGradient id="paint15_linear" x1="-95.4305" y1="125.1" x2="84.5075" y2="-91.0946" gradientUnits="userSpaceOnUse">
<stop stop-color="#F0FEFF"/>
<stop offset="0.583333" stop-color="#AC00C8"/>
<stop offset="1" stop-color="#79BABE"/>
</linearGradient>
</defs>
</svg>
