<svg width="451" height="78" viewBox="0 0 451 78" fill="none" xmlns="http://www.w3.org/2000/svg">
<g opacity="0.15">
<path d="M-317.159 4.27202C-286.098 -5.16669 -125.235 5.74947 -31.915 64.7345C84.7345 138.466 89.0633 52.1496 160.83 31.7675C232.597 11.3854 358.313 20.3541 467.718 83.7488C611.252 166.919 635.402 29.442 647.477 22.192" stroke="url(#paint0_linear)" stroke-width="1.05106"/>
<path d="M-367.851 72.7109C-348.485 9.92303 -250.632 9.46971 -144.007 116.852C-60.8177 200.632 37.1189 142.295 121.189 100.639C202.079 60.5577 365.879 143.8 411.673 119.725C484.449 81.4638 462.251 188.942 610.114 159.87" stroke="url(#paint1_linear)" stroke-width="1.05106"/>
<path d="M-316.233 11.7526C-285.952 -1.24274 -133.595 2.67144 -39.3883 64.883C75.0305 139.284 85.5998 54.8333 158.187 33.0329C230.562 11.3375 358.817 25.2578 463.982 82.8211C602.798 157.896 623.858 36.7493 644.986 28.0445" stroke="url(#paint2_linear)" stroke-width="1.05106"/>
<path d="M-315.306 20.2442C-285.804 3.69227 -141.954 0.604477 -46.8599 66.0425C65.3282 141.114 82.138 58.528 155.545 35.3093C228.528 12.3007 359.322 31.1726 460.246 82.9045C594.346 149.884 612.316 45.0676 642.496 34.9081" stroke="url(#paint3_linear)" stroke-width="1.05106"/>
<path d="M-314.38 29.5647C-285.658 9.45615 -150.314 -0.633615 -54.3336 68.0309C55.6238 143.772 78.6742 63.0517 152.902 38.4146C226.493 14.0927 359.826 37.9162 456.509 83.8168C585.891 142.701 600.772 54.2149 640.004 42.6005" stroke="url(#paint4_linear)" stroke-width="1.05106"/>
<path d="M-313.454 39.531C-285.512 15.8659 -158.675 -1.22588 -61.8069 70.6651C45.9199 147.076 75.2107 68.2211 150.258 42.1658C224.458 16.5306 360.33 45.3057 452.772 85.3749C577.437 136.163 589.228 64.0079 637.513 50.9388" stroke="url(#paint5_linear)" stroke-width="1.05106"/>
<path d="M-312.526 49.9931C-285.363 22.7714 -167.033 -1.32234 -69.2785 73.7952C36.2175 150.876 71.7489 73.8863 147.617 46.4127C222.425 19.4643 360.835 53.1909 449.037 87.4288C568.985 130.122 577.686 74.2967 635.023 59.7729" stroke="url(#paint6_linear)" stroke-width="1.05106"/>
<path d="M-311.6 60.8312C-285.217 30.0528 -175.394 -1.0429 -76.7518 77.3011C26.5136 155.052 68.2855 79.9275 144.973 51.0356C220.39 22.7739 361.339 61.4521 445.3 89.8586C560.531 124.456 566.142 84.9615 632.532 68.9828" stroke="url(#paint7_linear)" stroke-width="1.05106"/>
<path d="M-310.672 71.9615C-285.069 37.6265 -183.752 -0.471125 -84.2234 81.0994C16.8112 159.52 64.8236 86.261 142.332 55.9508C218.356 26.3758 361.845 70.0056 441.565 92.5808C552.078 119.083 554.599 95.9186 630.042 78.4851" stroke="url(#paint8_linear)" stroke-width="1.05106"/>
<path d="M-309.747 83.3187C-284.923 45.4271 -192.113 0.327428 -91.697 85.1244C7.10694 164.215 61.3599 92.8212 139.688 61.0927C216.321 30.2045 362.348 78.7858 437.828 95.5297C543.624 113.937 543.055 107.102 627.55 88.2142" stroke="url(#paint9_linear)" stroke-width="1.05106"/>
<path d="M-314.704 78.4275C-290.66 36.9793 -200.473 1.3076 -99.1698 89.331C-2.59653 169.092 57.897 99.5631 137.045 66.4163C214.286 34.2148 362.853 87.7477 434.091 98.6603C535.17 108.972 531.512 118.468 625.06 98.1249" stroke="url(#paint10_linear)" stroke-width="1.05106"/>
<path d="M-313.119 77.4738C-289.855 32.469 -208.833 2.43086 -106.644 93.6808C-12.301 174.111 54.433 106.448 134.402 71.883C212.251 38.3682 363.356 96.8527 430.354 101.934C526.716 104.15 519.967 129.976 622.567 108.179" stroke="url(#paint11_linear)" stroke-width="1.05106"/>
<path d="M-327.395 69.3779C-304.91 20.8164 -217.191 3.67417 -114.114 98.1506C-22.0019 179.251 50.9726 113.453 131.761 77.4697C210.219 42.6416 363.863 106.078 426.62 105.328C518.265 99.4484 508.427 141.605 620.079 118.353" stroke="url(#paint12_linear)" stroke-width="1.05106"/>
<path d="M-318.67 76.5213C-296.965 24.4033 -225.551 5.0137 -121.588 102.717C-31.7064 184.487 47.5086 120.554 129.118 83.1527C208.183 47.0113 364.366 115.399 422.883 108.817C509.81 94.8429 496.882 153.33 617.587 128.623" stroke="url(#paint13_linear)" stroke-width="1.05106"/>
<path d="M-305.979 55.0905C-285.054 -0.584151 -233.912 6.43571 -129.061 107.365C-41.4109 189.805 44.0446 127.738 126.474 88.9181C206.148 51.4634 364.87 124.803 419.145 112.39C501.356 90.3199 485.338 165.137 615.095 138.975" stroke="url(#paint14_linear)" stroke-width="1.05106"/>
<path d="M-321.844 62.7095C-301.698 3.47817 -242.272 7.92309 -136.534 112.079C-51.1145 195.189 40.5816 134.987 123.831 94.7489C204.113 55.981 365.374 134.272 415.409 116.028C492.902 85.8622 473.794 177.01 612.604 149.393" stroke="url(#paint15_linear)" stroke-width="1.05106"/>
</g>
<defs>
<linearGradient id="paint0_linear" x1="-317.159" y1="82.8861" x2="-87.1885" y2="-159.89" gradientUnits="userSpaceOnUse">
<stop stop-color="#F0FEFF"/>
<stop offset="0.583333" stop-color="#AC00C8"/>
<stop offset="1" stop-color="#79BABE"/>
</linearGradient>
<linearGradient id="paint1_linear" x1="-303.261" y1="141.578" x2="-96.7461" y2="-87.4111" gradientUnits="userSpaceOnUse">
<stop stop-color="#F0FEFF"/>
<stop offset="0.583333" stop-color="#AC00C8"/>
<stop offset="1" stop-color="#79BABE"/>
</linearGradient>
<linearGradient id="paint2_linear" x1="-316.233" y1="81.6563" x2="-103.551" y2="-158.801" gradientUnits="userSpaceOnUse">
<stop stop-color="#F0FEFF"/>
<stop offset="0.583333" stop-color="#AC00C8"/>
<stop offset="1" stop-color="#79BABE"/>
</linearGradient>
<linearGradient id="paint3_linear" x1="-315.306" y1="81.1932" x2="-118.304" y2="-156.097" gradientUnits="userSpaceOnUse">
<stop stop-color="#F0FEFF"/>
<stop offset="0.583333" stop-color="#AC00C8"/>
<stop offset="1" stop-color="#79BABE"/>
</linearGradient>
<linearGradient id="paint4_linear" x1="-314.38" y1="81.3644" x2="-131.526" y2="-152.162" gradientUnits="userSpaceOnUse">
<stop stop-color="#F0FEFF"/>
<stop offset="0.583333" stop-color="#AC00C8"/>
<stop offset="1" stop-color="#79BABE"/>
</linearGradient>
<linearGradient id="paint5_linear" x1="-313.454" y1="82.0416" x2="-143.411" y2="-147.304" gradientUnits="userSpaceOnUse">
<stop stop-color="#F0FEFF"/>
<stop offset="0.583333" stop-color="#AC00C8"/>
<stop offset="1" stop-color="#79BABE"/>
</linearGradient>
<linearGradient id="paint6_linear" x1="-312.526" y1="86.0609" x2="-143.807" y2="-142.243" gradientUnits="userSpaceOnUse">
<stop stop-color="#F0FEFF"/>
<stop offset="0.583333" stop-color="#AC00C8"/>
<stop offset="1" stop-color="#79BABE"/>
</linearGradient>
<linearGradient id="paint7_linear" x1="-311.6" y1="90.448" x2="-142.917" y2="-137.208" gradientUnits="userSpaceOnUse">
<stop stop-color="#F0FEFF"/>
<stop offset="0.583333" stop-color="#AC00C8"/>
<stop offset="1" stop-color="#79BABE"/>
</linearGradient>
<linearGradient id="paint8_linear" x1="-310.672" y1="95.066" x2="-141.226" y2="-132.179" gradientUnits="userSpaceOnUse">
<stop stop-color="#F0FEFF"/>
<stop offset="0.583333" stop-color="#AC00C8"/>
<stop offset="1" stop-color="#79BABE"/>
</linearGradient>
<linearGradient id="paint9_linear" x1="-309.747" y1="99.8655" x2="-138.909" y2="-127.142" gradientUnits="userSpaceOnUse">
<stop stop-color="#F0FEFF"/>
<stop offset="0.583333" stop-color="#AC00C8"/>
<stop offset="1" stop-color="#79BABE"/>
</linearGradient>
<linearGradient id="paint10_linear" x1="-308.82" y1="104.813" x2="-136.092" y2="-122.076" gradientUnits="userSpaceOnUse">
<stop stop-color="#F0FEFF"/>
<stop offset="0.583333" stop-color="#AC00C8"/>
<stop offset="1" stop-color="#79BABE"/>
</linearGradient>
<linearGradient id="paint11_linear" x1="-307.894" y1="109.879" x2="-132.877" y2="-116.966" gradientUnits="userSpaceOnUse">
<stop stop-color="#F0FEFF"/>
<stop offset="0.583333" stop-color="#AC00C8"/>
<stop offset="1" stop-color="#79BABE"/>
</linearGradient>
<linearGradient id="paint12_linear" x1="-306.965" y1="115.048" x2="-129.335" y2="-111.793" gradientUnits="userSpaceOnUse">
<stop stop-color="#F0FEFF"/>
<stop offset="0.583333" stop-color="#AC00C8"/>
<stop offset="1" stop-color="#79BABE"/>
</linearGradient>
<linearGradient id="paint13_linear" x1="-306.04" y1="120.301" x2="-125.537" y2="-106.546" gradientUnits="userSpaceOnUse">
<stop stop-color="#F0FEFF"/>
<stop offset="0.583333" stop-color="#AC00C8"/>
<stop offset="1" stop-color="#79BABE"/>
</linearGradient>
<linearGradient id="paint14_linear" x1="-305.114" y1="125.627" x2="-121.528" y2="-101.212" gradientUnits="userSpaceOnUse">
<stop stop-color="#F8FFF0"/>
<stop offset="0.583333" stop-color="#AC00C8"/>
<stop offset="1" stop-color="#79BABE"/>
</linearGradient>
<linearGradient id="paint15_linear" x1="-304.188" y1="131.709" x2="-115.061" y2="-95.5253" gradientUnits="userSpaceOnUse">
<stop stop-color="#F0FEFF"/>
<stop offset="0.583333" stop-color="#AC00C8"/>
<stop offset="1" stop-color="#79BABE"/>
</linearGradient>
</defs>
</svg>
